<svg width="18" height="14" viewBox="0 0 18 14" fill="none" xmlns="http://www.w3.org/2000/svg">
<path d="M15.0583 1.44236C13.9499 0.925689 12.7499 0.550689 11.4999 0.334023C11.489 0.333672 11.4781 0.335729 11.468 0.340048C11.4579 0.344368 11.4489 0.350845 11.4416 0.359023C11.2916 0.634023 11.1166 0.992356 10.9999 1.26736C9.6741 1.06736 8.32577 1.06736 6.99994 1.26736C6.88327 0.984023 6.70827 0.634023 6.54994 0.359023C6.5416 0.342356 6.5166 0.334023 6.4916 0.334023C5.2416 0.550689 4.04993 0.925689 2.93327 1.44236C2.92493 1.44236 2.9166 1.45069 2.90827 1.45902C0.641602 4.85069 0.0166016 8.15069 0.324935 11.4174C0.324935 11.434 0.333268 11.4507 0.349935 11.459C1.84993 12.559 3.2916 13.2257 4.7166 13.6674C4.7416 13.6757 4.7666 13.6674 4.77493 13.6507C5.10827 13.1924 5.40827 12.709 5.6666 12.2007C5.68327 12.1674 5.6666 12.134 5.63327 12.1257C5.15827 11.9424 4.70827 11.7257 4.2666 11.4757C4.23327 11.459 4.23327 11.409 4.25827 11.384C4.34994 11.3174 4.4416 11.2424 4.53327 11.1757C4.54993 11.159 4.57493 11.159 4.5916 11.1674C7.45827 12.4757 10.5499 12.4757 13.3833 11.1674C13.3999 11.159 13.4249 11.159 13.4416 11.1757C13.5333 11.2507 13.6249 11.3174 13.7166 11.3924C13.7499 11.4174 13.7499 11.4674 13.7083 11.484C13.2749 11.7424 12.8166 11.9507 12.3416 12.134C12.3083 12.1424 12.2999 12.184 12.3083 12.209C12.5749 12.7174 12.8749 13.2007 13.1999 13.659C13.2249 13.6674 13.2499 13.6757 13.2749 13.6674C14.7083 13.2257 16.1499 12.559 17.6499 11.459C17.6666 11.4507 17.6749 11.434 17.6749 11.4174C18.0416 7.64235 17.0666 4.36736 15.0916 1.45902C15.0833 1.45069 15.0749 1.44236 15.0583 1.44236ZM6.09994 9.42569C5.2416 9.42569 4.52493 8.63402 4.52493 7.65902C4.52493 6.68402 5.22494 5.89236 6.09994 5.89236C6.98327 5.89236 7.68327 6.69236 7.67493 7.65902C7.67493 8.63402 6.97494 9.42569 6.09994 9.42569ZM11.9083 9.42569C11.0499 9.42569 10.3333 8.63402 10.3333 7.65902C10.3333 6.68402 11.0333 5.89236 11.9083 5.89236C12.7916 5.89236 13.4916 6.69236 13.4833 7.65902C13.4833 8.63402 12.7916 9.42569 11.9083 9.42569Z" fill="white"/>
</svg>
