<svg width="18" height="17" viewBox="0 0 18 17" fill="none" xmlns="http://www.w3.org/2000/svg">
<path d="M9.00008 0.666016C7.90573 0.666016 6.8221 0.881564 5.81105 1.30035C4.80001 1.71914 3.88135 2.33297 3.10752 3.10679C1.54472 4.6696 0.666748 6.78921 0.666748 8.99935C0.666748 12.6827 3.05841 15.8077 6.36675 16.916C6.78341 16.9827 6.91675 16.7243 6.91675 16.4993V15.091C4.60841 15.591 4.11675 13.9743 4.11675 13.9743C3.73341 13.0077 3.19175 12.7493 3.19175 12.7493C2.43341 12.2327 3.25008 12.2493 3.25008 12.2493C4.08341 12.3077 4.52508 13.1077 4.52508 13.1077C5.25008 14.3743 6.47508 13.9993 6.95008 13.7993C7.02508 13.2577 7.24175 12.891 7.47508 12.6827C5.62508 12.4743 3.68341 11.7577 3.68341 8.58268C3.68341 7.65768 4.00008 6.91602 4.54175 6.32435C4.45841 6.11602 4.16675 5.24935 4.62508 4.12435C4.62508 4.12435 5.32508 3.89935 6.91675 4.97435C7.57508 4.79102 8.29175 4.69935 9.00008 4.69935C9.70841 4.69935 10.4251 4.79102 11.0834 4.97435C12.6751 3.89935 13.3751 4.12435 13.3751 4.12435C13.8334 5.24935 13.5417 6.11602 13.4584 6.32435C14.0001 6.91602 14.3167 7.65768 14.3167 8.58268C14.3167 11.766 12.3667 12.466 10.5084 12.6743C10.8084 12.9327 11.0834 13.441 11.0834 14.216V16.4993C11.0834 16.7243 11.2167 16.991 11.6417 16.916C14.9501 15.7993 17.3334 12.6827 17.3334 8.99935C17.3334 7.905 17.1179 6.82137 16.6991 5.81032C16.2803 4.79927 15.6665 3.88061 14.8926 3.10679C14.1188 2.33297 13.2002 1.71914 12.1891 1.30035C11.1781 0.881564 10.0944 0.666016 9.00008 0.666016Z" fill="white"/>
</svg>
