<svg width="20" height="10" viewBox="0 0 20 10" fill="none" xmlns="http://www.w3.org/2000/svg">
<path d="M10.625 5C10.625 5.98891 10.3318 6.95561 9.78235 7.77785C9.23294 8.6001 8.45205 9.24096 7.53842 9.6194C6.62479 9.99784 5.61946 10.0969 4.64955 9.90393C3.67965 9.711 2.78873 9.2348 2.08947 8.53553C1.39021 7.83627 0.914002 6.94536 0.721076 5.97545C0.52815 5.00555 0.627166 4.00021 1.0056 3.08658C1.38404 2.17295 2.02491 1.39206 2.84715 0.842652C3.6694 0.293245 4.6361 0 5.625 0C6.95064 0.00144754 8.22157 0.528697 9.15894 1.46607C10.0963 2.40343 10.6236 3.67436 10.625 5ZM14.375 0C13.9313 0 13.0938 0.215625 12.475 1.66016C12.0883 2.5625 11.875 3.75 11.875 5C11.875 6.25 12.0883 7.4375 12.475 8.33984C13.0938 9.78438 13.9313 10 14.375 10C14.8188 10 15.6563 9.78438 16.275 8.33984C16.6617 7.4375 16.875 6.25 16.875 5C16.875 3.75 16.6617 2.5625 16.275 1.66016C15.6563 0.215625 14.8188 0 14.375 0ZM18.75 0C18.5842 0 18.4253 0.0658481 18.3081 0.183058C18.1908 0.300269 18.125 0.45924 18.125 0.625V9.375C18.125 9.54076 18.1908 9.69973 18.3081 9.81694C18.4253 9.93415 18.5842 10 18.75 10C18.9158 10 19.0747 9.93415 19.1919 9.81694C19.3092 9.69973 19.375 9.54076 19.375 9.375V0.625C19.375 0.45924 19.3092 0.300269 19.1919 0.183058C19.0747 0.0658481 18.9158 0 18.75 0Z" fill="white"/>
</svg>
