<svg width="18" height="15" viewBox="0 0 18 15" fill="none" xmlns="http://www.w3.org/2000/svg">
<path d="M17.7165 2.00065C17.0749 2.29232 16.3832 2.48398 15.6665 2.57565C16.3999 2.13398 16.9665 1.43398 17.2332 0.592318C16.5415 1.00898 15.7749 1.30065 14.9665 1.46732C14.3082 0.750651 13.3832 0.333984 12.3332 0.333984C10.3749 0.333984 8.77487 1.93398 8.77487 3.90898C8.77487 4.19232 8.8082 4.46732 8.86654 4.72565C5.89987 4.57565 3.2582 3.15065 1.49987 0.992318C1.19154 1.51732 1.01654 2.13398 1.01654 2.78398C1.01654 4.02565 1.64154 5.12565 2.6082 5.75065C2.01654 5.75065 1.46654 5.58398 0.983203 5.33398V5.35898C0.983203 7.09232 2.21654 8.54232 3.84987 8.86732C3.32548 9.01083 2.77495 9.03079 2.24154 8.92565C2.46788 9.63605 2.91115 10.2577 3.50905 10.7031C4.10695 11.1485 4.82941 11.3954 5.57487 11.409C4.31123 12.4094 2.74487 12.9501 1.1332 12.9423C0.84987 12.9423 0.566536 12.9257 0.283203 12.8923C1.86654 13.909 3.74987 14.5007 5.76654 14.5007C12.3332 14.5007 15.9415 9.05065 15.9415 4.32565C15.9415 4.16732 15.9415 4.01732 15.9332 3.85898C16.6332 3.35898 17.2332 2.72565 17.7165 2.00065Z" fill="white"/>
</svg>
