<svg width="16" height="15" viewBox="0 0 16 15" fill="none" xmlns="http://www.w3.org/2000/svg" fill="url(#paint0_linear_1455_22789)">
<g filter="url(#filter0_i_1455_22789)">
<path fill-rule="evenodd" clip-rule="evenodd" d="M8.89717 1.4834C8.53033 0.740233 7.47059 0.740233 7.10375 1.4834L5.65791 4.41253C5.51237 4.70738 5.23118 4.91183 4.90583 4.95939L1.67091 5.43222C0.850998 5.55206 0.524215 6.55991 1.11781 7.13807L3.45701 9.41645C3.69288 9.64619 3.80054 9.97732 3.74488 10.3018L3.19303 13.5194C3.05292 14.3364 3.91046 14.9593 4.64409 14.5735L7.53501 13.0532C7.82639 12.9 8.17453 12.9 8.46591 13.0532L11.3568 14.5735C12.0905 14.9593 12.948 14.3364 12.8079 13.5194L12.256 10.3018C12.2004 9.97732 12.308 9.64619 12.5439 9.41644L14.8831 7.13807C15.4767 6.55991 15.1499 5.55206 14.33 5.43222L11.0951 4.95939C10.7697 4.91183 10.4886 4.70738 10.343 4.41253L8.89717 1.4834Z" />
</g>
<defs>
<filter id="filter0_i_1455_22789" x="0.814453" y="0.926025" width="14.3711" height="14.7646" filterUnits="userSpaceOnUse" color-interpolation-filters="sRGB">
<feFlood flood-opacity="0" result="BackgroundImageFix"/>
<feBlend mode="normal" in="SourceGraphic" in2="BackgroundImageFix" result="shape"/>
<feColorMatrix in="SourceAlpha" type="matrix" values="0 0 0 0 0 0 0 0 0 0 0 0 0 0 0 0 0 0 127 0" result="hardAlpha"/>
<feOffset dy="1"/>
<feGaussianBlur stdDeviation="0.5"/>
<feComposite in2="hardAlpha" operator="arithmetic" k2="-1" k3="1"/>
<feColorMatrix type="matrix" values="0 0 0 0 1 0 0 0 0 1 0 0 0 0 1 0 0 0 0.24 0"/>
<feBlend mode="normal" in2="shape" result="effect1_innerShadow_1455_22789"/>
</filter>
<linearGradient id="paint0_linear_1455_22789" x1="8.00046" y1="0.926025" x2="8.00046" y2="14.6907" gradientUnits="userSpaceOnUse">
<stop stop-color="#B5B4ED"/>
<stop offset="1" stop-color="#4D5CE7"/>
</linearGradient>
</defs>
</svg>
