<svg viewBox="0 0 20 20" fill="currentColor"  font-size="20px" xmlns="http://www.w3.org/2000/svg">
<path d="M5.5625 15.5H14.4375L12.6042 13.6667C12.2421 13.9318 11.8395 14.137 11.3963 14.2822C10.9531 14.4274 10.4881 14.5 10.0012 14.5C9.51428 14.5 9.04896 14.4259 8.60521 14.2778C8.16146 14.1296 7.75833 13.9259 7.39583 13.6667L5.5625 15.5ZM4.5 14.4583L6.33333 12.625C6.06818 12.2599 5.86301 11.8539 5.71781 11.4069C5.5726 10.96 5.5 10.491 5.5 10C5.5 9.51289 5.57408 9.04764 5.72223 8.60425C5.87037 8.16085 6.07407 7.75804 6.33333 7.39583L4.5 5.5625V14.4583ZM7.41667 11.5417L8.9375 10L7.41667 8.47917C7.27778 8.70761 7.17361 8.94875 7.10417 9.20258C7.03472 9.45642 7 9.72222 7 10C7 10.2778 7.03472 10.546 7.10417 10.8046C7.17361 11.0632 7.27778 11.3089 7.41667 11.5417ZM10 13C10.2778 13 10.5436 12.9653 10.7974 12.8958C11.0513 12.8264 11.2924 12.7222 11.5208 12.5833L10 11.0625L8.47917 12.5833C8.70172 12.7222 8.93974 12.8264 9.19321 12.8958C9.44668 12.9653 9.71561 13 10 13ZM10 8.9375L11.5208 7.41667C11.2924 7.27778 11.0513 7.17361 10.7974 7.10417C10.5436 7.03472 10.2778 7 10 7C9.72222 7 9.45642 7.03472 9.20258 7.10417C8.94875 7.17361 8.70761 7.27778 8.47917 7.41667L10 8.9375ZM12.5833 11.5208C12.7222 11.2924 12.8264 11.0513 12.8958 10.7974C12.9653 10.5436 13 10.2778 13 10C13 9.72222 12.9653 9.45545 12.8958 9.19969C12.8264 8.94391 12.7222 8.70374 12.5833 8.47917L11.0625 10L12.5833 11.5208ZM15.5 14.4375V5.5625L13.6667 7.39583C13.9259 7.75787 14.1296 8.1605 14.2778 8.60371C14.4259 9.0469 14.5 9.51194 14.5 9.99883C14.5 10.4857 14.4274 10.951 14.2822 11.3948C14.137 11.8385 13.9318 12.2417 13.6667 12.6042L15.5 14.4375ZM12.6042 6.33333L14.4375 4.5H5.5625L7.39583 6.33333C7.75787 6.06818 8.1605 5.86301 8.60371 5.71781C9.0469 5.5726 9.51194 5.5 9.99883 5.5C10.4857 5.5 10.951 5.57408 11.3948 5.72223C11.8385 5.87037 12.2417 6.07407 12.6042 6.33333ZM4.5 17C4.0875 17 3.73437 16.8531 3.44062 16.5594C3.14687 16.2656 3 15.9125 3 15.5V4.5C3 4.0875 3.14687 3.73437 3.44062 3.44062C3.73437 3.14687 4.0875 3 4.5 3H15.5C15.9125 3 16.2656 3.14687 16.5594 3.44062C16.8531 3.73437 17 4.0875 17 4.5V15.5C17 15.9125 16.8531 16.2656 16.5594 16.5594C16.2656 16.8531 15.9125 17 15.5 17H4.5Z"/>
</svg>
