<!-- <svg width="14px" viewBox="0 0 14 14" fill="currentColor" xmlns="http://www.w3.org/2000/svg">
<path d="M2.5625 12.5H11.4375L9.60417 10.6667C9.24213 10.9318 8.8395 11.137 8.39629 11.2822C7.9531 11.4274 7.48806 11.5 7.00117 11.5C6.51428 11.5 6.04896 11.4259 5.60521 11.2778C5.16146 11.1296 4.75833 10.9259 4.39583 10.6667L2.5625 12.5ZM1.5 11.4583L3.33333 9.625C3.06818 9.25989 2.86301 8.85386 2.71781 8.40692C2.5726 7.95999 2.5 7.49101 2.5 7C2.5 6.51289 2.57408 6.04764 2.72223 5.60425C2.87037 5.16085 3.07407 4.75804 3.33333 4.39583L1.5 2.5625V11.4583ZM4.41667 8.54167L5.9375 7L4.41667 5.47917C4.27778 5.70761 4.17361 5.94875 4.10417 6.20258C4.03472 6.45642 4 6.72222 4 7C4 7.27778 4.03472 7.54598 4.10417 7.8046C4.17361 8.06321 4.27778 8.3089 4.41667 8.54167ZM7 10C7.27778 10 7.54358 9.96528 7.79742 9.89583C8.05125 9.82639 8.29239 9.72222 8.52083 9.58333L7 8.0625L5.47917 9.58333C5.70172 9.72222 5.93974 9.82639 6.19321 9.89583C6.44668 9.96528 6.71561 10 7 10ZM7 5.9375L8.52083 4.41667C8.29239 4.27778 8.05125 4.17361 7.79742 4.10417C7.54358 4.03472 7.27778 4 7 4C6.72222 4 6.45642 4.03472 6.20258 4.10417C5.94875 4.17361 5.70761 4.27778 5.47917 4.41667L7 5.9375ZM9.58333 8.52083C9.72222 8.29239 9.82639 8.05125 9.89583 7.79742C9.96528 7.54358 10 7.27778 10 7C10 6.72222 9.96528 6.45545 9.89583 6.19969C9.82639 5.94391 9.72222 5.70374 9.58333 5.47917L8.0625 7L9.58333 8.52083ZM12.5 11.4375V2.5625L10.6667 4.39583C10.9259 4.75787 11.1296 5.1605 11.2778 5.60371C11.4259 6.0469 11.5 6.51194 11.5 6.99883C11.5 7.48572 11.4274 7.95104 11.2822 8.39479C11.137 8.83854 10.9318 9.24167 10.6667 9.60417L12.5 11.4375ZM9.60417 3.33333L11.4375 1.5H2.5625L4.39583 3.33333C4.75787 3.06818 5.1605 2.86301 5.60371 2.71781C6.0469 2.5726 6.51194 2.5 6.99883 2.5C7.48572 2.5 7.95104 2.57408 8.39479 2.72223C8.83854 2.87037 9.24167 3.07407 9.60417 3.33333ZM1.5 14C1.0875 14 0.734375 13.8531 0.440625 13.5594C0.146875 13.2656 0 12.9125 0 12.5V1.5C0 1.0875 0.146875 0.734375 0.440625 0.440625C0.734375 0.146875 1.0875 0 1.5 0H12.5C12.9125 0 13.2656 0.146875 13.5594 0.440625C13.8531 0.734375 14 1.0875 14 1.5V12.5C14 12.9125 13.8531 13.2656 13.5594 13.5594C13.2656 13.8531 12.9125 14 12.5 14H1.5Z"/>
</svg> -->
<svg width="20" height="20" viewBox="0 0 20 20" fill="none" xmlns="http://www.w3.org/2000/svg">
<path fill-rule="evenodd" clip-rule="evenodd" d="M9.59141 0.408203H3.64482C1.63185 0.408203 0 2.04005 0 4.05303V15.9467C0 17.9597 1.63185 19.5915 3.64482 19.5915H9.59141C9.59157 19.5756 9.59165 19.5596 9.59165 19.5435C9.59165 19.5596 9.59174 19.5756 9.59184 19.5915H15.5385C17.5515 19.5915 19.1833 17.9597 19.1833 15.9467V4.05303C19.1833 2.04005 17.5515 0.408203 15.5385 0.408203H9.59184C9.61764 3.06126 11.7762 5.20403 14.4354 5.20403H14.3875C11.7388 5.20403 9.59165 7.35119 9.59165 9.99985C9.59165 7.35119 7.44448 5.20403 4.79582 5.20403H4.74786C7.407 5.20403 9.56568 3.06126 9.59141 0.408203ZM9.59165 9.99985C9.59165 12.4252 7.79128 14.43 5.45409 14.7509C7.7945 15.0927 9.59165 17.1083 9.59165 19.5435C9.59165 17.1083 11.3888 15.0927 13.7292 14.7509C11.392 14.43 9.59165 12.4252 9.59165 9.99985Z" fill="#F1F1F1"/>
</svg>