<svg font-size="20px" viewBox="0 0 20 20" fill="none" xmlns="http://www.w3.org/2000/svg">
<path fill-rule="evenodd" clip-rule="evenodd" d="M11.4142 17.0855C10.6331 17.8665 9.36678 17.8665 8.58573 17.0855L8.08573 16.5855C7.71065 16.2104 7.20195 15.9997 6.67152 15.9997H5.99994C4.89537 15.9997 3.99994 15.1043 3.99994 13.9997V13.3281C3.99994 12.7977 3.78923 12.289 3.41416 11.9139L2.91415 11.4139C2.13311 10.6329 2.13311 9.36653 2.91416 8.58548L3.41416 8.08548C3.78923 7.71041 3.99994 7.2017 3.99994 6.67127V5.9997C3.99994 4.89513 4.89537 3.9997 5.99994 3.9997H6.67152C7.20195 3.9997 7.71066 3.78898 8.08573 3.41391L8.58573 2.91391C9.36678 2.13286 10.6331 2.13286 11.4142 2.91391L11.9142 3.41391C12.2892 3.78899 12.7979 3.9997 13.3284 3.9997H13.9999C15.1045 3.9997 15.9999 4.89513 15.9999 5.9997V6.67127C15.9999 7.2017 16.2107 7.71041 16.5857 8.08548L17.0857 8.58549C17.8668 9.36653 17.8668 10.6329 17.0857 11.4139L16.5857 11.9139C16.2107 12.289 15.9999 12.7977 15.9999 13.3281V13.9997C15.9999 15.1043 15.1045 15.9997 13.9999 15.9997H13.3284C12.7979 15.9997 12.2892 16.2104 11.9142 16.5855L11.4142 17.0855ZM10.016 7.63446H9.19981L7.95975 9.13313L6.73234 7.63446H5.90985L7.56116 9.6398L5.90985 11.6345H6.73234L7.96608 10.1411L9.19349 11.6345H10.0097L8.36467 9.6398L10.016 7.63446ZM12.7396 7.63446C13.6633 7.63446 14.4099 8.2958 14.4099 9.10646C14.4099 9.91713 13.6633 10.5731 12.7396 10.5785H11.6007V11.6345H10.8985V7.63446H12.7396ZM11.6007 10.0878V8.12513H12.7269C13.271 8.12513 13.7076 8.5678 13.7076 9.10646C13.7076 9.64513 13.271 10.0878 12.7269 10.0878H11.6007Z" fill="#CFCFCF"/>
</svg>
