<svg width="92" height="26" viewBox="0 0 92 26" fill="none" xmlns="http://www.w3.org/2000/svg">
<path fill-rule="evenodd" clip-rule="evenodd" d="M9.59141 3.4082H3.64482C1.63185 3.4082 0 5.04005 0 7.05303V18.9467C0 20.9597 1.63185 22.5915 3.64482 22.5915H9.59141H15.5385C17.5515 22.5915 19.1833 20.9597 19.1833 18.9467V7.05303C19.1833 5.04005 17.5515 3.4082 15.5385 3.4082H9.59141C9.61722 6.06126 11.7762 8.20403 14.4354 8.20403H14.3875C11.7388 8.20403 9.59165 10.3512 9.59165 12.9998C9.59165 10.3512 7.44448 8.20403 4.79582 8.20403H4.74786C7.407 8.20403 9.56568 6.06126 9.59141 3.4082ZM9.59165 12.9998C9.59165 15.4252 7.79128 17.43 5.45409 17.7509C7.7945 18.0927 9.59165 20.1083 9.59165 22.5435C9.59165 20.1083 11.3888 18.0927 13.7292 17.7509C11.392 17.43 9.59165 15.4252 9.59165 12.9998Z" fill="white"/>
<path d="M23.9868 21.9999H33.3789V19.6518H26.9794L33.3559 12.93V10.4899H24.24V12.8379H30.3633L23.9868 19.5598V21.9999Z" fill="white"/>
<path d="M37.2736 5.88591H34.6954V21.9999H37.2736V5.88591ZM42.2459 21.9999H45.2155L40.4734 15.1169L38.6088 16.429L42.2459 21.9999ZM41.8316 10.4899L36.9513 15.8075V18.9843L45.0774 10.4899H41.8316Z" fill="white"/>
<path d="M46.3679 21.9999H56.7269V19.3986H49.1764V14.9327H55.8752V12.3315H49.1764V8.48716H56.7269V5.88591H46.3679V21.9999Z" fill="white"/>
<path d="M57.5778 18.8001C57.5778 19.3065 57.6698 19.7746 57.854 20.2043C58.0382 20.634 58.2914 21.01 58.6137 21.3323C58.9513 21.6392 59.3656 21.8771 59.8567 22.0459C60.3478 22.2301 60.908 22.3222 61.5372 22.3222C62.2278 22.3222 62.857 22.2071 63.4248 21.9769C63.9926 21.7467 64.4761 21.409 64.8751 20.964C65.2894 20.5189 65.604 19.9818 65.8189 19.3526C66.0338 18.7234 66.1488 18.0174 66.1642 17.2347L65.3815 16.9815C65.3815 17.4419 65.2971 17.8716 65.1283 18.2706C64.9748 18.6543 64.7523 18.9919 64.4607 19.2835C64.1691 19.5598 63.8238 19.7823 63.4248 19.9511C63.0412 20.1046 62.6115 20.1813 62.1357 20.1813C61.5218 20.1813 61.0308 20.0432 60.6624 19.7669C60.3095 19.4907 60.133 19.1147 60.133 18.639C60.133 18.1632 60.3632 17.7642 60.8236 17.4419C61.2993 17.1196 62.0897 16.9355 63.1946 16.8894L66.4174 16.7513V14.8637L62.7803 15.0018C61.0614 15.0632 59.7647 15.4315 58.8899 16.1068C58.0151 16.782 57.5778 17.6798 57.5778 18.8001ZM65.3815 21.9999H67.8907V14.8176C67.8907 14.0964 67.7679 13.4518 67.5224 12.884C67.2922 12.3161 66.9622 11.8327 66.5325 11.4337C66.1028 11.0194 65.5733 10.7048 64.9441 10.4899C64.3303 10.275 63.6397 10.1676 62.8723 10.1676C61.66 10.1676 60.6317 10.4208 59.7877 10.9273C58.959 11.4337 58.3297 12.1473 57.9 13.0681L59.9488 14.081C60.225 13.5132 60.601 13.0758 61.0768 12.7689C61.5679 12.4619 62.1357 12.3085 62.7803 12.3085C63.5936 12.3085 64.2305 12.5387 64.6909 12.9991C65.1513 13.4441 65.3815 14.035 65.3815 14.7716V21.9999Z" fill="white"/>
<path d="M74.1947 22.3222C74.916 22.3222 75.5683 22.2301 76.1514 22.0459C76.75 21.8771 77.2564 21.6316 77.6708 21.3093C78.0851 20.987 78.4074 20.5957 78.6376 20.1353C78.8678 19.6749 78.9829 19.1607 78.9829 18.5929C78.9829 17.8716 78.8064 17.2961 78.4534 16.8664C78.1158 16.4367 77.6861 16.0991 77.1643 15.8535C76.6425 15.5927 76.0747 15.4008 75.4608 15.278C74.8623 15.1399 74.3022 15.0095 73.7804 14.8867C73.2586 14.7486 72.8289 14.5874 72.4913 14.4033C72.1536 14.2191 71.9848 13.9506 71.9848 13.5976C71.9848 13.2446 72.1613 12.9454 72.5143 12.6998C72.8673 12.4389 73.366 12.3085 74.0106 12.3085C74.6705 12.3085 75.2383 12.4543 75.7141 12.7459C76.1898 13.0221 76.5735 13.4365 76.8651 13.9889L78.8218 12.8149C78.3767 11.9402 77.7475 11.2802 76.9341 10.8352C76.1361 10.3901 75.1769 10.1676 74.0566 10.1676C73.3507 10.1676 72.7215 10.2597 72.169 10.4439C71.6165 10.6127 71.1408 10.8582 70.7418 11.1805C70.3581 11.4874 70.0588 11.8557 69.844 12.2855C69.6445 12.7152 69.5447 13.1909 69.5447 13.7127C69.5447 14.4186 69.7135 14.9788 70.0512 15.3931C70.4041 15.8075 70.8338 16.1375 71.3403 16.383C71.8621 16.6286 72.4222 16.8204 73.0207 16.9585C73.6192 17.0966 74.1717 17.2347 74.6782 17.3729C75.1999 17.511 75.6297 17.6798 75.9673 17.8793C76.3203 18.0788 76.4967 18.3704 76.4967 18.7541C76.4967 19.1684 76.2896 19.506 75.8752 19.7669C75.4608 20.0125 74.916 20.1353 74.2408 20.1353C73.4888 20.1353 72.8289 19.9741 72.2611 19.6518C71.7086 19.3142 71.2635 18.8078 70.9259 18.1325L68.9692 19.3296C69.445 20.3117 70.1279 21.0561 71.018 21.5625C71.9081 22.0689 72.967 22.3222 74.1947 22.3222Z" fill="white"/>
<path d="M85.6806 22.3222C84.7752 22.3222 83.9464 22.1764 83.1945 21.8848C82.4425 21.5778 81.7902 21.1558 81.2378 20.6187C80.7006 20.0815 80.2786 19.437 79.9717 18.685C79.6801 17.933 79.5343 17.112 79.5343 16.2219C79.5343 15.3318 79.6878 14.5184 79.9947 13.7818C80.3016 13.0298 80.716 12.3929 81.2378 11.8711C81.7749 11.334 82.4118 10.9196 83.1484 10.628C83.9004 10.3211 84.7138 10.1676 85.5885 10.1676C86.4326 10.1676 87.1923 10.3057 87.8675 10.582C88.5581 10.8582 89.149 11.2496 89.6401 11.756C90.1311 12.2471 90.5148 12.8379 90.791 13.5285C91.0673 14.2191 91.2054 14.9865 91.2054 15.8305C91.2054 15.9993 91.1977 16.1835 91.1824 16.383C91.167 16.5672 91.144 16.7667 91.1133 16.9815H81.6982V15.0018H88.9725L88.6042 15.3241C88.6042 14.879 88.5198 14.48 88.3509 14.1271C88.1975 13.7587 87.9826 13.4518 87.7064 13.2063C87.4455 12.9454 87.1309 12.7459 86.7626 12.6077C86.3942 12.4696 85.9876 12.4006 85.5425 12.4006C85.0207 12.4006 84.545 12.4926 84.1153 12.6768C83.6856 12.861 83.3172 13.1218 83.0103 13.4595C82.7187 13.7971 82.4885 14.1961 82.3197 14.6565C82.1509 15.1169 82.0665 15.631 82.0665 16.1988C82.0665 16.7513 82.1509 17.2654 82.3197 17.7412C82.5039 18.2169 82.7494 18.6236 83.0563 18.9612C83.3786 19.2835 83.7623 19.5444 84.2073 19.7439C84.6524 19.9281 85.1512 20.0202 85.7036 20.0202C86.3789 20.0202 86.9851 19.882 87.5222 19.6058C88.0593 19.3296 88.4891 18.9152 88.8113 18.3627L90.6759 19.836C90.1081 20.6494 89.3945 21.2709 88.5351 21.7006C87.691 22.115 86.7395 22.3222 85.6806 22.3222Z" fill="white"/>
</svg>
