<svg width="22" height="22" viewBox="0 0 22 22" fill="none" xmlns="http://www.w3.org/2000/svg" fill="#AF2C2C">
<path d="M11.0016 21.025C10.7349 21.025 10.4807 20.975 10.2391 20.875C9.9974 20.775 9.77656 20.6333 9.57656 20.45L1.55156 12.425C1.36823 12.225 1.22656 12.0042 1.12656 11.7625C1.02656 11.5208 0.976562 11.2667 0.976562 11C0.976562 10.7333 1.02656 10.475 1.12656 10.225C1.22656 9.97501 1.36823 9.75834 1.55156 9.57501L9.57656 1.55001C9.77656 1.35001 9.9974 1.20417 10.2391 1.11251C10.4807 1.02084 10.7349 0.975006 11.0016 0.975006C11.2682 0.975006 11.5266 1.02084 11.7766 1.11251C12.0266 1.20417 12.2432 1.35001 12.4266 1.55001L20.4516 9.57501C20.6516 9.75834 20.7974 9.97501 20.8891 10.225C20.9807 10.475 21.0266 10.7333 21.0266 11C21.0266 11.2667 20.9807 11.5208 20.8891 11.7625C20.7974 12.0042 20.6516 12.225 20.4516 12.425L12.4266 20.45C12.2432 20.6333 12.0266 20.775 11.7766 20.875C11.5266 20.975 11.2682 21.025 11.0016 21.025ZM10.0016 12H12.0016V6.00001H10.0016V12ZM11.0016 15C11.2849 15 11.5224 14.9042 11.7141 14.7125C11.9057 14.5208 12.0016 14.2833 12.0016 14C12.0016 13.7167 11.9057 13.4792 11.7141 13.2875C11.5224 13.0958 11.2849 13 11.0016 13C10.7182 13 10.4807 13.0958 10.2891 13.2875C10.0974 13.4792 10.0016 13.7167 10.0016 14C10.0016 14.2833 10.0974 14.5208 10.2891 14.7125C10.4807 14.9042 10.7182 15 11.0016 15Z" />
</svg>
