<svg viewBox="0 0 20 20" font-size="20px" fill="none" xmlns="http://www.w3.org/2000/svg">
<path d="M11.2501 7.88333V8.82451H8.75012V7.88333C8.75012 7.55653 8.87165 7.27875 9.11471 7.05C9.35776 6.82124 9.6529 6.70686 10.0001 6.70686C10.3473 6.70686 10.6425 6.82124 10.8855 7.05C11.1286 7.27875 11.2501 7.55653 11.2501 7.88333Z" fill="#CFCFCF"/>
<path fill-rule="evenodd" clip-rule="evenodd" d="M6.89583 17.375C7.86806 17.7917 8.90278 18 10 18C11.1111 18 12.1493 17.7917 13.1146 17.375C14.0799 16.9583 14.9271 16.3854 15.6562 15.6562C16.3854 14.9271 16.9583 14.0764 17.375 13.1042C17.7917 12.1319 18 11.0972 18 10C18 8.88889 17.7917 7.85069 17.375 6.88541C16.9583 5.92014 16.3854 5.07292 15.6562 4.34375C14.9271 3.61458 14.0799 3.04167 13.1146 2.625C12.1493 2.20833 11.1111 2 10 2C8.90278 2 7.86806 2.20833 6.89583 2.625C5.92361 3.04167 5.07292 3.61458 4.34375 4.34375C3.61458 5.07292 3.04167 5.92014 2.625 6.88541C2.20833 7.85069 2 8.88889 2 10C2 11.0972 2.20833 12.1319 2.625 13.1042C3.04167 14.0764 3.61458 14.9271 4.34375 15.6562C5.07292 16.3854 5.92361 16.9583 6.89583 17.375ZM7.21887 13.7936C7.36471 13.9319 7.54081 14.001 7.74717 14.001H12.2497C12.4561 14.001 12.6327 13.9319 12.7797 13.7936C12.9266 13.6554 13.0001 13.4892 13.0001 13.2951V9.53039C13.0001 9.33627 12.9267 9.17009 12.7798 9.03186C12.6329 8.89362 12.4564 8.82451 12.2501 8.82451H12.0001V7.88333C12.0001 7.36255 11.8057 6.91862 11.4168 6.55156C11.0279 6.18451 10.5565 6.00098 10.0025 6.00098C9.44849 6.00098 8.97627 6.18451 8.58581 6.55156C8.19535 6.91862 8.00012 7.36255 8.00012 7.88333V8.82451H7.75012C7.54387 8.82451 7.36731 8.89362 7.22043 9.03186C7.07356 9.17009 7.00012 9.33627 7.00012 9.53039V13.2951C7.00012 13.4892 7.07304 13.6554 7.21887 13.7936Z" fill="#CFCFCF"/>
</svg>
