<svg width="119" height="19" viewBox="0 0 119 19" fill="none" xmlns="http://www.w3.org/2000/svg">
<g filter="url(#filter0_di_1373_54455)">
<path fill-rule="evenodd" clip-rule="evenodd" d="M12.2078 0.791992C9.97836 0.791992 6.49903 0.791992 6.49903 0.791992C4.56657 0.791992 3 2.35856 3 4.29102L3 15.7089C3 17.6414 4.56657 19.208 6.49903 19.208H12.2078H17.9169C19.8494 19.208 21.416 17.6414 21.416 15.7089V4.29102C21.416 2.35856 19.8494 0.791992 17.9169 0.791992C17.9169 0.791992 14.4373 0.791992 12.2078 0.791992C12.2325 3.33893 14.3052 5.39598 16.858 5.39598H16.812C14.2693 5.39598 12.208 7.45726 12.208 9.99997C12.208 7.45726 10.1467 5.39598 7.60399 5.39598H7.55795C10.1107 5.39598 12.1831 3.33893 12.2078 0.791992ZM12.208 9.99997C12.208 12.3283 10.4796 14.253 8.23592 14.561C10.4827 14.8891 12.208 16.8241 12.208 19.1619C12.208 16.8241 13.9333 14.8891 16.18 14.561C13.9363 14.253 12.208 12.3283 12.208 9.99997Z" fill="url(#paint0_linear_1373_54455)"/>
</g>
<path d="M25.2559 17.5798H34.2723V15.3256H28.1287L34.2502 8.87269V6.53018H25.4989V8.7843H31.3773L25.2559 15.2372V17.5798Z" fill="white" fill-opacity="0.8"/>
<path d="M38.0112 2.11035H35.5361V17.5798H38.0112V2.11035ZM42.7846 17.5798H45.6354L41.083 10.9721L39.293 12.2318L42.7846 17.5798ZM42.3868 6.53018L37.7018 11.6351V14.6848L45.5028 6.53018H42.3868Z" fill="white" fill-opacity="0.8"/>
<path d="M46.7418 17.5798H56.6864V15.0826H49.4379V10.7953H55.8687V8.29811H49.4379V4.60756H56.6864V2.11035H46.7418V17.5798Z" fill="white" fill-opacity="0.8"/>
<path d="M57.5032 14.508C57.5032 14.9942 57.5916 15.4435 57.7684 15.856C57.9452 16.2685 58.1883 16.6295 58.4976 16.9389C58.8218 17.2335 59.2195 17.4619 59.691 17.624C60.1624 17.8007 60.7002 17.8891 61.3042 17.8891C61.9672 17.8891 62.5713 17.7786 63.1164 17.5577C63.6615 17.3367 64.1256 17.0125 64.5086 16.5853C64.9064 16.158 65.2084 15.6424 65.4147 15.0384C65.6209 14.4343 65.7314 13.7566 65.7462 13.0052L64.9948 12.7621C64.9948 13.2041 64.9138 13.6166 64.7517 13.9997C64.6044 14.368 64.3908 14.6921 64.1108 14.9721C63.8309 15.2372 63.4994 15.4509 63.1164 15.6129C62.748 15.7603 62.3355 15.8339 61.8788 15.8339C61.2895 15.8339 60.8181 15.7013 60.4645 15.4361C60.1256 15.1709 59.9562 14.81 59.9562 14.3533C59.9562 13.8966 60.1772 13.5135 60.6192 13.2041C61.0759 12.8947 61.8346 12.7179 62.8954 12.6737L65.9893 12.5412V10.729L62.4976 10.8616C60.8475 10.9205 59.6026 11.2741 58.7628 11.9224C57.9231 12.5706 57.5032 13.4325 57.5032 14.508ZM64.9948 17.5798H67.4036V10.6848C67.4036 9.99238 67.2857 9.37361 67.05 8.82849C66.829 8.28338 66.5123 7.8193 66.0998 7.43625C65.6872 7.03846 65.179 6.73644 64.5749 6.53018C63.9856 6.32392 63.3226 6.22079 62.586 6.22079C61.4221 6.22079 60.435 6.46389 59.6247 6.95007C58.8291 7.43625 58.2251 8.12132 57.8126 9.00529L59.7794 9.97765C60.0446 9.43254 60.4055 9.01265 60.8623 8.718C61.3337 8.42334 61.8788 8.27602 62.4976 8.27602C63.2784 8.27602 63.8898 8.49701 64.3318 8.93899C64.7738 9.36624 64.9948 9.93345 64.9948 10.6406V17.5798Z" fill="white" fill-opacity="0.8"/>
<path d="M73.4555 17.8891C74.1479 17.8891 74.7741 17.8007 75.3339 17.624C75.9085 17.4619 76.3947 17.2262 76.7925 16.9168C77.1902 16.6074 77.4996 16.2317 77.7206 15.7897C77.9416 15.3477 78.0521 14.8542 78.0521 14.3091C78.0521 13.6166 77.8827 13.0642 77.5438 12.6516C77.2197 12.2391 76.8072 11.915 76.3063 11.6793C75.8054 11.4288 75.2603 11.2447 74.6709 11.1268C74.0964 10.9942 73.5586 10.869 73.0577 10.7511C72.5568 10.6185 72.1443 10.4638 71.8202 10.287C71.496 10.1102 71.334 9.85242 71.334 9.51357C71.334 9.17471 71.5034 8.88743 71.8423 8.6517C72.1811 8.40124 72.6599 8.27602 73.2787 8.27602C73.9122 8.27602 74.4573 8.41598 74.914 8.6959C75.3708 8.96109 75.7391 9.35887 76.019 9.88925L77.8974 8.7622C77.4702 7.92243 76.8661 7.28892 76.0853 6.86167C75.3192 6.43442 74.3984 6.22079 73.3229 6.22079C72.6452 6.22079 72.0411 6.30919 71.5108 6.48598C70.9804 6.64804 70.5237 6.88377 70.1406 7.19316C69.7723 7.48781 69.485 7.8414 69.2788 8.25392C69.0872 8.66643 68.9915 9.12315 68.9915 9.62406C68.9915 10.3018 69.1535 10.8395 69.4776 11.2373C69.8165 11.6351 70.229 11.9518 70.7152 12.1876C71.2161 12.4233 71.7539 12.6074 72.3284 12.74C72.903 12.8726 73.4334 13.0052 73.9196 13.1378C74.4205 13.2704 74.833 13.4325 75.1571 13.624C75.496 13.8155 75.6654 14.0955 75.6654 14.4638C75.6654 14.8616 75.4665 15.1857 75.0687 15.4361C74.6709 15.6719 74.1479 15.7897 73.4997 15.7897C72.7778 15.7897 72.1443 15.635 71.5992 15.3256C71.0688 15.0015 70.6415 14.5153 70.3174 13.8671L68.439 15.0163C68.8957 15.9592 69.5513 16.6737 70.4058 17.1599C71.2603 17.6461 72.2769 17.8891 73.4555 17.8891Z" fill="white" fill-opacity="0.8"/>
<path d="M84.4819 17.8891C83.6127 17.8891 82.8171 17.7492 82.0952 17.4693C81.3733 17.1746 80.7472 16.7695 80.2168 16.2538C79.7012 15.7382 79.296 15.1194 79.0013 14.3975C78.7214 13.6756 78.5815 12.8874 78.5815 12.0329C78.5815 11.1784 78.7288 10.3975 79.0234 9.69036C79.3181 8.96846 79.7159 8.35705 80.2168 7.85613C80.7324 7.34048 81.3439 6.9427 82.051 6.66278C82.7729 6.36812 83.5538 6.22079 84.3935 6.22079C85.2038 6.22079 85.9331 6.35339 86.5814 6.61858C87.2443 6.88377 87.8115 7.25945 88.283 7.74564C88.7544 8.21708 89.1228 8.7843 89.3879 9.44727C89.6531 10.1102 89.7857 10.8469 89.7857 11.6572C89.7857 11.8192 89.7784 11.996 89.7636 12.1876C89.7489 12.3644 89.7268 12.5559 89.6973 12.7621H80.6588V10.8616H87.6421L87.2885 11.171C87.2885 10.7438 87.2075 10.3607 87.0454 10.0218C86.8981 9.66826 86.6918 9.37361 86.4267 9.13788C86.1762 8.88742 85.8742 8.6959 85.5206 8.5633C85.167 8.43071 84.7766 8.36441 84.3493 8.36441C83.8484 8.36441 83.3917 8.45281 82.9792 8.6296C82.5667 8.8064 82.2131 9.05685 81.9184 9.38097C81.6385 9.70509 81.4175 10.0881 81.2555 10.5301C81.0934 10.9721 81.0124 11.4657 81.0124 12.0108C81.0124 12.5412 81.0934 13.0347 81.2555 13.4914C81.4323 13.9481 81.668 14.3385 81.9626 14.6627C82.272 14.9721 82.6403 15.2225 83.0676 15.414C83.4948 15.5908 83.9737 15.6792 84.504 15.6792C85.1523 15.6792 85.7342 15.5466 86.2499 15.2814C86.7655 15.0163 87.178 14.6185 87.4874 14.0881L89.2775 15.5024C88.7323 16.2833 88.0473 16.88 87.2222 17.2925C86.4119 17.6903 85.4985 17.8891 84.4819 17.8891Z" fill="white" fill-opacity="0.8"/>
<path d="M96.6437 9.71191V9.02566H98.2787C98.6587 9.02566 98.9462 8.94941 99.1412 8.79691C99.3362 8.64441 99.4337 8.42316 99.4337 8.13316V8.12566C99.4337 7.93066 99.3887 7.76816 99.2987 7.63816C99.2087 7.50816 99.0737 7.41066 98.8937 7.34566C98.7162 7.27816 98.4949 7.24441 98.2299 7.24441H96.6437V6.60316H98.0612C98.4337 6.60316 98.7149 6.53566 98.9049 6.40066C99.0949 6.26316 99.1899 6.06316 99.1899 5.80066V5.79316C99.1899 5.53816 99.1037 5.34066 98.9312 5.20066C98.7587 5.05816 98.5162 4.98691 98.2037 4.98691H96.6437V4.30066H98.4024C98.7399 4.30066 99.0299 4.35566 99.2724 4.46566C99.5174 4.57566 99.7049 4.73191 99.8349 4.93441C99.9649 5.13441 100.03 5.37191 100.03 5.64691V5.65441C100.03 5.84441 99.9874 6.02191 99.9024 6.18691C99.8174 6.34941 99.7037 6.48691 99.5612 6.59941C99.4187 6.71191 99.2574 6.78316 99.0774 6.81316V6.87691C99.3224 6.90191 99.5362 6.97316 99.7187 7.09066C99.9012 7.20816 100.044 7.36066 100.146 7.54816C100.249 7.73316 100.3 7.94316 100.3 8.17816V8.18566C100.3 8.50066 100.225 8.77316 100.075 9.00316C99.9274 9.23066 99.7162 9.40566 99.4412 9.52816C99.1662 9.65066 98.8362 9.71191 98.4512 9.71191H96.6437ZM96.2237 9.71191V4.30066H97.0637V9.71191H96.2237ZM102.992 9.79066C102.595 9.79066 102.254 9.70566 101.969 9.53566C101.684 9.36316 101.464 9.11941 101.309 8.80441C101.156 8.48941 101.08 8.11691 101.08 7.68691V7.68316C101.08 7.25816 101.156 6.88691 101.309 6.56941C101.464 6.25191 101.681 6.00441 101.961 5.82691C102.244 5.64941 102.574 5.56066 102.951 5.56066C103.331 5.56066 103.657 5.64566 103.93 5.81566C104.205 5.98566 104.416 6.22441 104.564 6.53191C104.711 6.83691 104.785 7.19441 104.785 7.60441V7.88941H101.492V7.30816H104.38L103.99 7.84816V7.52191C103.99 7.23191 103.945 6.99191 103.855 6.80191C103.767 6.60941 103.646 6.46566 103.491 6.37066C103.336 6.27566 103.157 6.22816 102.955 6.22816C102.752 6.22816 102.571 6.27816 102.411 6.37816C102.254 6.47566 102.129 6.62066 102.036 6.81316C101.946 7.00566 101.901 7.24191 101.901 7.52191V7.84816C101.901 8.11566 101.946 8.34441 102.036 8.53441C102.126 8.72441 102.254 8.86941 102.419 8.96941C102.586 9.06941 102.784 9.11941 103.011 9.11941C103.186 9.11941 103.336 9.09566 103.461 9.04816C103.589 8.99816 103.692 8.93691 103.772 8.86441C103.855 8.79191 103.911 8.72066 103.941 8.65066L103.956 8.62066H104.744L104.736 8.65441C104.701 8.78941 104.64 8.92441 104.552 9.05941C104.465 9.19191 104.349 9.31316 104.204 9.42316C104.061 9.53316 103.889 9.62191 103.686 9.68941C103.486 9.75691 103.255 9.79066 102.992 9.79066ZM107.29 9.73816C106.845 9.73816 106.522 9.65316 106.322 9.48316C106.125 9.31066 106.026 9.02941 106.026 8.63941V6.28066H105.389V5.63941H106.026V4.61191H106.859V5.63941H107.732V6.28066H106.859V8.44066C106.859 8.66066 106.902 8.81941 106.99 8.91691C107.077 9.01191 107.222 9.05941 107.425 9.05941C107.485 9.05941 107.536 9.05816 107.579 9.05566C107.624 9.05316 107.675 9.04941 107.732 9.04441V9.69691C107.667 9.70691 107.597 9.71566 107.522 9.72316C107.447 9.73316 107.37 9.73816 107.29 9.73816ZM109.802 9.77941C109.545 9.77941 109.314 9.73066 109.109 9.63316C108.906 9.53316 108.746 9.39191 108.629 9.20941C108.511 9.02691 108.452 8.81316 108.452 8.56816V8.56066C108.452 8.31566 108.511 8.10691 108.629 7.93441C108.749 7.76191 108.921 7.62691 109.146 7.52941C109.374 7.42941 109.649 7.36941 109.971 7.34941L111.475 7.25941V7.83316L110.084 7.92316C109.804 7.94066 109.597 8.00066 109.465 8.10316C109.332 8.20316 109.266 8.34441 109.266 8.52691V8.53441C109.266 8.71941 109.337 8.86566 109.48 8.97316C109.622 9.07816 109.802 9.13066 110.02 9.13066C110.222 9.13066 110.402 9.09066 110.56 9.01066C110.72 8.92816 110.845 8.81816 110.935 8.68066C111.025 8.54066 111.07 8.38316 111.07 8.20816V6.92566C111.07 6.70066 111 6.52941 110.86 6.41191C110.722 6.29191 110.517 6.23191 110.245 6.23191C110.017 6.23191 109.831 6.27191 109.686 6.35191C109.544 6.43191 109.449 6.54441 109.401 6.68941L109.394 6.70066H108.61L108.614 6.67441C108.646 6.44941 108.735 6.25441 108.88 6.08941C109.027 5.92191 109.22 5.79191 109.457 5.69941C109.697 5.60691 109.971 5.56066 110.279 5.56066C110.621 5.56066 110.911 5.61566 111.149 5.72566C111.389 5.83316 111.57 5.98941 111.692 6.19441C111.817 6.39691 111.88 6.64066 111.88 6.92566V9.71191H111.07V9.13441H111.01C110.93 9.27191 110.83 9.38941 110.71 9.48691C110.59 9.58191 110.454 9.65441 110.301 9.70441C110.149 9.75441 109.982 9.77941 109.802 9.77941Z" fill="white" fill-opacity="0.8"/>
<rect x="92.1851" y="1.27199" width="23.72" height="11.88" rx="5.94" stroke="white" stroke-opacity="0.6" stroke-width="0.96"/>
<defs>
<filter id="filter0_di_1373_54455" x="0" y="0.791992" width="24.416" height="24.416" filterUnits="userSpaceOnUse" color-interpolation-filters="sRGB">
<feFlood flood-opacity="0" result="BackgroundImageFix"/>
<feColorMatrix in="SourceAlpha" type="matrix" values="0 0 0 0 0 0 0 0 0 0 0 0 0 0 0 0 0 0 127 0" result="hardAlpha"/>
<feOffset dy="3"/>
<feGaussianBlur stdDeviation="1.5"/>
<feComposite in2="hardAlpha" operator="out"/>
<feColorMatrix type="matrix" values="0 0 0 0 0 0 0 0 0 0 0 0 0 0 0 0 0 0 0.54 0"/>
<feBlend mode="normal" in2="BackgroundImageFix" result="effect1_dropShadow_1373_54455"/>
<feBlend mode="normal" in="SourceGraphic" in2="effect1_dropShadow_1373_54455" result="shape"/>
<feColorMatrix in="SourceAlpha" type="matrix" values="0 0 0 0 0 0 0 0 0 0 0 0 0 0 0 0 0 0 127 0" result="hardAlpha"/>
<feOffset/>
<feGaussianBlur stdDeviation="3.5"/>
<feComposite in2="hardAlpha" operator="arithmetic" k2="-1" k3="1"/>
<feColorMatrix type="matrix" values="0 0 0 0 1 0 0 0 0 1 0 0 0 0 1 0 0 0 0.28 0"/>
<feBlend mode="normal" in2="shape" result="effect2_innerShadow_1373_54455"/>
</filter>
<linearGradient id="paint0_linear_1373_54455" x1="12.208" y1="0.791992" x2="12.208" y2="19.208" gradientUnits="userSpaceOnUse">
<stop stop-color="#B5B4ED"/>
<stop offset="1" stop-color="#4D5CE7"/>
</linearGradient>
</defs>
</svg>
