<svg width="20" height="20" viewBox="0 0 20 20" fill="none" xmlns="http://www.w3.org/2000/svg">
<path fill-rule="evenodd" clip-rule="evenodd" d="M9.59141 0.408203H3.64482C1.63185 0.408203 0 2.04005 0 4.05303V15.9467C0 17.9597 1.63185 19.5915 3.64482 19.5915H9.59141C9.59157 19.5756 9.59165 19.5596 9.59165 19.5435C9.59165 19.5596 9.59174 19.5756 9.59184 19.5915H15.5385C17.5515 19.5915 19.1833 17.9597 19.1833 15.9467V4.05303C19.1833 2.04005 17.5515 0.408203 15.5385 0.408203H9.59184C9.61764 3.06126 11.7762 5.20403 14.4354 5.20403H14.3875C11.7388 5.20403 9.59165 7.35119 9.59165 9.99985C9.59165 7.35119 7.44448 5.20403 4.79582 5.20403H4.74786C7.407 5.20403 9.56568 3.06126 9.59141 0.408203ZM9.59165 9.99985C9.59165 12.4252 7.79128 14.43 5.45409 14.7509C7.7945 15.0927 9.59165 17.1083 9.59165 19.5435C9.59165 17.1083 11.3888 15.0927 13.7292 14.7509C11.392 14.43 9.59165 12.4252 9.59165 9.99985Z" fill="#F1F1F1"/>
</svg>
