<svg width="75" height="15" viewBox="0 0 75 15" fill="none" xmlns="http://www.w3.org/2000/svg">
<mask id="mask0_2019_15634" style="mask-type:luminance" maskUnits="userSpaceOnUse" x="0" y="0" width="76" height="16">
<path d="M75.002 0.000976562H0.00195312V15.001H75.002V0.000976562Z" fill="white"/>
</mask>
<g mask="url(#mask0_2019_15634)">
<path fill-rule="evenodd" clip-rule="evenodd" d="M26.034 7.36346L18.6496 0.000976562V5.3916L11.3184 10.7885L18.6496 10.7947V14.7229L26.034 7.36346Z" fill="white" fill-opacity="0.8"/>
<path fill-rule="evenodd" clip-rule="evenodd" d="M0.00195312 7.36034L7.38633 14.7198V9.37286L14.7176 3.93223L7.38633 3.92598V0.000976562L0.00195312 7.36034Z" fill="white" fill-opacity="0.8"/>
<path d="M37.0399 11.0389H31.3867V9.417L34.6211 5.81074H31.468V4.21387H36.9805V5.75449L33.6492 9.42948H37.0367V11.0389H37.0399Z" fill="white" fill-opacity="0.8"/>
<path d="M44.7508 4.21191L42.0164 7.08379L44.807 11.0369H42.5445L40.7383 8.42756L39.9758 9.23065V11.0338H38.1289V0.993164H39.9758V6.74941L42.3351 4.21191H44.7508Z" fill="white" fill-opacity="0.8"/>
<path d="M52.7867 3.54785L51.0649 4.07598C50.9992 3.72597 50.8243 3.4041 50.5367 3.11973C50.2492 2.83222 49.8274 2.68848 49.2742 2.68848C48.8211 2.68848 48.4492 2.81347 48.1618 3.06348C47.8742 3.3041 47.7305 3.59472 47.7305 3.93847C47.7305 4.53847 48.0868 4.91035 48.7993 5.04785L50.1742 5.31035C51.0461 5.47598 51.7211 5.82285 52.2023 6.35098C52.6836 6.8791 52.9243 7.49782 52.9243 8.21032C52.9243 9.02284 52.5992 9.73534 51.9524 10.3478C51.3149 10.9478 50.4524 11.2509 49.368 11.2509C48.7461 11.2509 48.1867 11.1572 47.6867 10.9728C47.1868 10.7885 46.7836 10.5416 46.4774 10.2384C46.1711 9.92284 45.9305 9.5947 45.7555 9.25408C45.5899 8.9041 45.4867 8.54158 45.4492 8.17282L47.2274 7.70098C47.2742 8.2291 47.4773 8.66662 47.8399 9.01972C48.2086 9.3697 48.7243 9.54784 49.3805 9.54784C49.8805 9.54784 50.268 9.43534 50.5461 9.21346C50.8336 8.99158 50.9774 8.70094 50.9774 8.33848C50.9774 8.05096 50.8711 7.80724 50.6586 7.60408C50.4555 7.39162 50.1617 7.24786 49.7836 7.17286L48.4086 6.8947C47.6117 6.7291 46.9836 6.40096 46.5211 5.91035C46.0586 5.41972 45.8273 4.81035 45.8273 4.0791C45.8273 3.21035 46.1617 2.4791 46.8274 1.88847C47.5024 1.29785 48.3149 1.00098 49.2586 1.00098C49.8242 1.00098 50.3273 1.0791 50.7711 1.23535C51.2149 1.3916 51.5711 1.6041 51.8399 1.87285C52.1086 2.13222 52.318 2.40097 52.4648 2.67597C52.6117 2.9541 52.7211 3.24472 52.7836 3.55098L52.7867 3.54785Z" fill="white" fill-opacity="0.8"/>
<path d="M56.0382 13.7295H54.0789L55.6883 10.1795L52.7852 4.21387H54.8539L56.6726 8.21076L58.3539 4.21387H60.3255L56.0351 13.7295H56.0382Z" fill="white" fill-opacity="0.8"/>
<path d="M62.8781 7.10916V11.0342H61.0312V4.21231H62.8217V5.05918C63.0155 4.7248 63.2939 4.47168 63.6563 4.29668C64.0187 4.12168 64.3967 4.03418 64.7939 4.03418C65.6003 4.03418 66.2093 4.28731 66.6281 4.79668C67.0529 5.29668 67.2659 5.94355 67.2659 6.7404V11.0404H65.4185V7.05918C65.4185 6.65292 65.3122 6.32478 65.0998 6.07482C64.897 5.82481 64.5815 5.6998 64.1561 5.6998C63.7685 5.6998 63.4564 5.83418 63.2248 6.1029C62.9938 6.3717 62.8781 6.7092 62.8781 7.1154V7.10916Z" fill="white" fill-opacity="0.8"/>
<path d="M71.7925 5.7086C71.3017 5.7086 70.8895 5.88047 70.5553 6.22112C70.2205 6.56174 70.0549 7.03046 70.0549 7.6211C70.0549 8.21173 70.2205 8.68357 70.5553 9.03673C70.8985 9.38047 71.3143 9.54919 71.8051 9.54919C72.2395 9.54919 72.5863 9.4367 72.8455 9.21482C73.1053 8.98358 73.2799 8.71172 73.3735 8.39612L74.9989 8.93672C74.8333 9.56486 74.4709 10.1055 73.9147 10.5586C73.3579 11.0117 72.6553 11.2398 71.8021 11.2398C70.7833 11.2398 69.9271 10.8992 69.2329 10.2117C68.5489 9.51799 68.2051 8.65232 68.2051 7.61798C68.2051 6.58358 68.5423 5.7086 69.2173 5.02422C69.9019 4.33985 70.7455 3.99609 71.7457 3.99609C72.6175 3.99609 73.3303 4.22422 73.8829 4.67735C74.4397 5.12109 74.7955 5.66172 74.9521 6.29924L73.2985 6.8555C73.0771 6.08672 72.5707 5.70547 71.7865 5.70547L71.7925 5.7086Z" fill="white" fill-opacity="0.8"/>
</g>
</svg>
